<?xml version="1.0" encoding="UTF-8"?>
<svg width="12px" height="8px" viewBox="0 0 12 8" version="1.1" xmlns="http://www.w3.org/2000/svg" xmlns:xlink="http://www.w3.org/1999/xlink">
    <style>
        #Page-1 {
            fill: rgba(0, 0, 0, .6);
        }
        @media (prefers-color-scheme: dark) {
            #Page-1 {
                fill: rgba(255, 255, 255, .6);
            }
        }
    </style>
    <g id="Page-1" stroke="none" stroke-width="1" fill="none" fill-rule="evenodd">
        <g id="􀆈" transform="translate(0.494141, 0.913452)" fill-rule="nonzero">
            <path d="M5.26803589,6.13494873 C5.38803101,6.13372803 5.49983215,6.11012268 5.60343933,6.06413269 C5.70704651,6.0181427 5.80526733,5.94799805 5.89810181,5.85369873 L10.3034363,1.34078979 C10.4546204,1.19082642 10.5302124,1.00894165 10.5302124,0.795135498 C10.5302124,0.647796631 10.4950256,0.513626099 10.4246521,0.392623901 C10.3542786,0.271621704 10.2598877,0.175933838 10.1414795,0.105560303 C10.0230713,0.0351867676 9.89080811,0 9.74468994,0 C9.52722168,0 9.33596802,0.0817260742 9.17092896,0.245178223 L5.00363159,4.53057861 L5.53591919,4.53057861 L1.36120605,0.245178223 C1.1963501,0.0817260742 1.00445557,0 0.785522461,0 C0.639465332,0 0.507217407,0.0351867676 0.388778687,0.105560303 C0.270339966,0.175933838 0.175933838,0.271621704 0.105560303,0.392623901 C0.0351867676,0.513626099 0,0.647796631 0,0.795135498 C0,0.902740479 0.0189361572,1.0020752 0.0568084717,1.09313965 C0.0946807861,1.1842041 0.150756836,1.26809692 0.225036621,1.34481812 L4.6340332,5.85369873 C4.82415771,6.04119873 5.03549194,6.13494873 5.26803589,6.13494873 Z" id="Path"></path>
        </g>
    </g>
</svg>